<mxfile host="app.diagrams.net" modified="2024-05-27T09:29:27.884Z" agent="Mozilla/5.0 (Windows NT 10.0; Win64; x64) AppleWebKit/537.36 (KHTML, like Gecko) Chrome/124.0.0.0 Safari/537.36" etag="alcr2vCMoh508_zdUX0W" version="24.4.8" type="device">
  <diagram id="C5RBs43oDa-KdzZeNtuy" name="Page-1">
    <mxGraphModel dx="1909" dy="1013" grid="1" gridSize="10" guides="1" tooltips="1" connect="1" arrows="1" fold="1" page="1" pageScale="1" pageWidth="827" pageHeight="1169" math="0" shadow="0">
      <root>
        <mxCell id="WIyWlLk6GJQsqaUBKTNV-0" />
        <mxCell id="WIyWlLk6GJQsqaUBKTNV-1" parent="WIyWlLk6GJQsqaUBKTNV-0" />
        <mxCell id="EiIt_3fmr46Ddawl57L8-7" style="edgeStyle=orthogonalEdgeStyle;rounded=0;orthogonalLoop=1;jettySize=auto;html=1;exitX=0.5;exitY=1;exitDx=0;exitDy=0;entryX=0.5;entryY=0;entryDx=0;entryDy=0;" edge="1" parent="WIyWlLk6GJQsqaUBKTNV-1" source="EiIt_3fmr46Ddawl57L8-0" target="EiIt_3fmr46Ddawl57L8-1">
          <mxGeometry relative="1" as="geometry" />
        </mxCell>
        <mxCell id="EiIt_3fmr46Ddawl57L8-0" value="INICIO" style="ellipse;whiteSpace=wrap;html=1;fillColor=#f8cecc;strokeColor=#b85450;" vertex="1" parent="WIyWlLk6GJQsqaUBKTNV-1">
          <mxGeometry x="340" y="50" width="120" height="80" as="geometry" />
        </mxCell>
        <mxCell id="EiIt_3fmr46Ddawl57L8-8" style="edgeStyle=orthogonalEdgeStyle;rounded=0;orthogonalLoop=1;jettySize=auto;html=1;exitX=0.5;exitY=1;exitDx=0;exitDy=0;entryX=0.5;entryY=0;entryDx=0;entryDy=0;" edge="1" parent="WIyWlLk6GJQsqaUBKTNV-1" source="EiIt_3fmr46Ddawl57L8-1" target="EiIt_3fmr46Ddawl57L8-2">
          <mxGeometry relative="1" as="geometry" />
        </mxCell>
        <mxCell id="EiIt_3fmr46Ddawl57L8-9" style="edgeStyle=orthogonalEdgeStyle;rounded=0;orthogonalLoop=1;jettySize=auto;html=1;exitX=0.5;exitY=1;exitDx=0;exitDy=0;" edge="1" parent="WIyWlLk6GJQsqaUBKTNV-1" source="EiIt_3fmr46Ddawl57L8-1" target="EiIt_3fmr46Ddawl57L8-3">
          <mxGeometry relative="1" as="geometry" />
        </mxCell>
        <mxCell id="EiIt_3fmr46Ddawl57L8-1" value="InitializeComponent()" style="rounded=0;whiteSpace=wrap;html=1;fillColor=#dae8fc;strokeColor=#6c8ebf;" vertex="1" parent="WIyWlLk6GJQsqaUBKTNV-1">
          <mxGeometry x="305" y="160" width="190" height="60" as="geometry" />
        </mxCell>
        <mxCell id="EiIt_3fmr46Ddawl57L8-10" style="edgeStyle=orthogonalEdgeStyle;rounded=0;orthogonalLoop=1;jettySize=auto;html=1;exitX=0.5;exitY=1;exitDx=0;exitDy=0;entryX=0.5;entryY=0;entryDx=0;entryDy=0;" edge="1" parent="WIyWlLk6GJQsqaUBKTNV-1" source="EiIt_3fmr46Ddawl57L8-2" target="EiIt_3fmr46Ddawl57L8-4">
          <mxGeometry relative="1" as="geometry" />
        </mxCell>
        <mxCell id="EiIt_3fmr46Ddawl57L8-2" value="Clicar no Botão 1" style="shape=parallelogram;perimeter=parallelogramPerimeter;whiteSpace=wrap;html=1;fixedSize=1;fillColor=#d5e8d4;strokeColor=#82b366;" vertex="1" parent="WIyWlLk6GJQsqaUBKTNV-1">
          <mxGeometry x="80" y="260" width="225" height="60" as="geometry" />
        </mxCell>
        <mxCell id="EiIt_3fmr46Ddawl57L8-11" style="edgeStyle=orthogonalEdgeStyle;rounded=0;orthogonalLoop=1;jettySize=auto;html=1;exitX=0.5;exitY=1;exitDx=0;exitDy=0;entryX=0.5;entryY=0;entryDx=0;entryDy=0;" edge="1" parent="WIyWlLk6GJQsqaUBKTNV-1" source="EiIt_3fmr46Ddawl57L8-3" target="EiIt_3fmr46Ddawl57L8-6">
          <mxGeometry relative="1" as="geometry" />
        </mxCell>
        <mxCell id="EiIt_3fmr46Ddawl57L8-3" value="Clicar no Botão 2" style="shape=parallelogram;perimeter=parallelogramPerimeter;whiteSpace=wrap;html=1;fixedSize=1;fillColor=#d5e8d4;strokeColor=#82b366;" vertex="1" parent="WIyWlLk6GJQsqaUBKTNV-1">
          <mxGeometry x="480" y="260" width="225" height="60" as="geometry" />
        </mxCell>
        <mxCell id="EiIt_3fmr46Ddawl57L8-14" style="edgeStyle=orthogonalEdgeStyle;rounded=0;orthogonalLoop=1;jettySize=auto;html=1;exitX=0.5;exitY=1;exitDx=0;exitDy=0;entryX=0.5;entryY=0;entryDx=0;entryDy=0;" edge="1" parent="WIyWlLk6GJQsqaUBKTNV-1" source="EiIt_3fmr46Ddawl57L8-4" target="EiIt_3fmr46Ddawl57L8-12">
          <mxGeometry relative="1" as="geometry" />
        </mxCell>
        <mxCell id="EiIt_3fmr46Ddawl57L8-4" value="Se o Form &quot;Produção&quot; não estiver aberto" style="rhombus;whiteSpace=wrap;html=1;fillColor=#f8cecc;strokeColor=#b85450;" vertex="1" parent="WIyWlLk6GJQsqaUBKTNV-1">
          <mxGeometry x="71.25" y="370" width="242.5" height="80" as="geometry" />
        </mxCell>
        <mxCell id="EiIt_3fmr46Ddawl57L8-15" style="edgeStyle=orthogonalEdgeStyle;rounded=0;orthogonalLoop=1;jettySize=auto;html=1;exitX=0.5;exitY=1;exitDx=0;exitDy=0;entryX=0.5;entryY=0;entryDx=0;entryDy=0;" edge="1" parent="WIyWlLk6GJQsqaUBKTNV-1" source="EiIt_3fmr46Ddawl57L8-6" target="EiIt_3fmr46Ddawl57L8-13">
          <mxGeometry relative="1" as="geometry" />
        </mxCell>
        <mxCell id="EiIt_3fmr46Ddawl57L8-6" value="Se o Form &quot;LeituraTag&quot; não estiver aberto" style="rhombus;whiteSpace=wrap;html=1;fillColor=#f8cecc;strokeColor=#b85450;" vertex="1" parent="WIyWlLk6GJQsqaUBKTNV-1">
          <mxGeometry x="471.25" y="370" width="242.5" height="80" as="geometry" />
        </mxCell>
        <mxCell id="EiIt_3fmr46Ddawl57L8-17" style="edgeStyle=orthogonalEdgeStyle;rounded=0;orthogonalLoop=1;jettySize=auto;html=1;exitX=0.5;exitY=1;exitDx=0;exitDy=0;entryX=0.5;entryY=0;entryDx=0;entryDy=0;" edge="1" parent="WIyWlLk6GJQsqaUBKTNV-1" source="EiIt_3fmr46Ddawl57L8-12" target="EiIt_3fmr46Ddawl57L8-16">
          <mxGeometry relative="1" as="geometry" />
        </mxCell>
        <mxCell id="EiIt_3fmr46Ddawl57L8-12" value="Cria e mostra o form &quot;Produção&quot;" style="rounded=0;whiteSpace=wrap;html=1;fillColor=#dae8fc;strokeColor=#6c8ebf;" vertex="1" parent="WIyWlLk6GJQsqaUBKTNV-1">
          <mxGeometry x="97.5" y="500" width="190" height="60" as="geometry" />
        </mxCell>
        <mxCell id="EiIt_3fmr46Ddawl57L8-18" style="edgeStyle=orthogonalEdgeStyle;rounded=0;orthogonalLoop=1;jettySize=auto;html=1;exitX=0.5;exitY=1;exitDx=0;exitDy=0;" edge="1" parent="WIyWlLk6GJQsqaUBKTNV-1" source="EiIt_3fmr46Ddawl57L8-13">
          <mxGeometry relative="1" as="geometry">
            <mxPoint x="400.0000000000002" y="650" as="targetPoint" />
          </mxGeometry>
        </mxCell>
        <mxCell id="EiIt_3fmr46Ddawl57L8-13" value="Cria e mostra o form &quot;LeituraTag&quot;" style="rounded=0;whiteSpace=wrap;html=1;fillColor=#dae8fc;strokeColor=#6c8ebf;" vertex="1" parent="WIyWlLk6GJQsqaUBKTNV-1">
          <mxGeometry x="497.5" y="500" width="190" height="60" as="geometry" />
        </mxCell>
        <mxCell id="EiIt_3fmr46Ddawl57L8-16" value="FIM" style="ellipse;whiteSpace=wrap;html=1;fillColor=#f8cecc;strokeColor=#b85450;" vertex="1" parent="WIyWlLk6GJQsqaUBKTNV-1">
          <mxGeometry x="340" y="650" width="120" height="80" as="geometry" />
        </mxCell>
      </root>
    </mxGraphModel>
  </diagram>
</mxfile>
